<svg id="Layer_1" data-name="Layer 1" xmlns="http://www.w3.org/2000/svg" viewBox="0 0 175.15 353.21"><defs><style>.cls-1{fill:#fefefe;}.cls-2{fill:#ececec;}.cls-3{fill:#d3d3d3;}.cls-4{fill:#b5b5b5;}.cls-5{fill:#d0d0d0;}.cls-6{fill:#cfcfcf;}.cls-7{fill:#c7c7c7;}.cls-8{fill:#fff;}.cls-9{fill:#cbcbcb;}.cls-10{fill:#bdbdbd;}.cls-11{fill:#cecece;}.cls-12{fill:#c4c4c4;}.cls-13{fill:#c2c2c2;}.cls-14{fill:silver;}.cls-15{fill:#c5c5c5;}.cls-16{fill:#ccc;}.cls-17{fill:#c6c6c6;}.cls-18{fill:#bebebe;}.cls-19{fill:#d5d5d5;}.cls-20{fill:#e0e0e0;}.cls-21{fill:#d1d1d1;}.cls-22{fill:#c3c3c3;}.cls-23{fill:#d8d8d8;}</style></defs><title>iphone-sketch</title><path class="cls-1" d="M327,327.47q0,86.21.08,172.42c0,3.19-.32,4.23-4,4.22q-83.71-.24-167.42,0c-3.27,0-3.76-.92-3.76-3.9q0.12-172.67,0-345.34c0-2.86.31-4,3.7-4q84,0.21,167.92,0c3.15,0,3.51.84,3.51,3.65Q326.93,241,327,327.47Z" transform="translate(-151.93 -150.9)"/><path class="cls-1" d="M162.27,160.95l1.68-1.66A23.85,23.85,0,0,1,180.8,153q58.16,0,116.32,0c4.48,0,9,.36,12.89,3l0,0c4.57,2.21,7.6,6,10.39,10.07a18.57,18.57,0,0,1,2.63,7.81c0,10.5-.12,21,0,31.49,0.16,10.83-.77,21.64-0.49,32.45,2.06,78.1.41,156.22,1,234.33a33.53,33.53,0,0,0,.12,3.49c0.86,3.55-.72,6.57-2.11,9.63-3.21,4.22-5.59,9.22-10.78,11.62a20.55,20.55,0,0,1-2.3,1.16c-3.39,1.69-6.92.41-10.35,0.42-39.31.09-78.61,0-117.92,0.15-6,0-11.15-1.3-15.62-5.25A5.73,5.73,0,0,1,162,491c-3-5.26-6.91-10.14-6.53-16.72,0.25-99.22-.48-198.42,0-297.62A22.61,22.61,0,0,1,162.27,160.95Z" transform="translate(-151.93 -150.9)"/><path class="cls-2" d="M320,484.72a13.56,13.56,0,0,0,3-7.68q0-107.44.05-214.87c0-2.41-.79-5,1-7.2,1.11,2,.92,4.2.92,6.35q0,106.24,0,212.48c0,16.77-11,28.06-27.85,28.14q-56.74.25-113.49,0c-9.89-.06-18.76-3.09-23.65-12.88,1.31-.72,2,0.55,2.95.93l0.9,2c5.54,4.55,12,6.09,19,6.08q56.49-.08,113,0a42.44,42.44,0,0,0,13.22-2l0.86-.82C314.24,492.59,317.94,489.44,320,484.72Z" transform="translate(-151.93 -150.9)"/><path class="cls-3" d="M324.06,255q0,107.13-.09,214.26c0,2.63.45,5.35-1,7.82-1.26-2-1-4.17-1-6.31q0-145.27,0-290.54c0-2.15-.25-4.35,1-6.32a9,9,0,0,1,1,4.82c0,14.82.41,29.66-.19,44.45-0.29,7.13-.71,14.26-0.85,21.41A52.18,52.18,0,0,0,324.06,255Z" transform="translate(-151.93 -150.9)"/><path class="cls-4" d="M156,175q0,150.52,0,301-0.55,1-1-.06c0-51.11-.14-102.23-0.05-153.34,0-18.47-.8-36.92-0.85-55.38-0.07-30.74.57-61.47,0.91-92.21Q155.49,174,156,175Z" transform="translate(-151.93 -150.9)"/><path class="cls-5" d="M310,156c-5.42-2-11.05-2-16.74-2-35.66.06-71.31,0.15-107-.06-8,0-15.6.67-22.35,5.38,4.08-5.91,10.57-7,16.77-7.08q58.39-.39,116.78,0C301.83,152.21,306.57,152.38,310,156Z" transform="translate(-151.93 -150.9)"/><path class="cls-6" d="M155.06,476l1,0.06a29.71,29.71,0,0,0,6.91,13.92L160,489C157.35,485,155,480.95,155.06,476Z" transform="translate(-151.93 -150.9)"/><path class="cls-6" d="M156,175l-1,.06c0.73-5.55,1.86-10.89,7.2-14.09C159.73,165.42,156.94,169.79,156,175Z" transform="translate(-151.93 -150.9)"/><path class="cls-7" d="M320.37,166.06L310,156C315.32,157.41,318.35,161.21,320.37,166.06Z" transform="translate(-151.93 -150.9)"/><path class="cls-8" d="M302,492l-1.75,1c-40-.07-80.06.15-120.09-0.11-13.4-2.09-19.63-9.42-19.63-23.14q0-144.7,0-289.41a27,27,0,0,1,1.94-11.21c4-8.24,10.69-11.69,19.73-11.67,38.66,0.1,77.32,0,116,.05,1.82,0,3.67-.26,5.44.4,8.12,2,12.25,8,15.44,15.07q0,0.45,0,.9c0.62,3.28,0,6.57,0,9.86q0.08,142.45,0,284.9c0,2.44.67,5-.94,7.28q0,0.48,0,1C316.12,485.75,310.48,491.07,302,492Z" transform="translate(-151.93 -150.9)"/><path class="cls-9" d="M318,475.92q0-147.32,0-294.64a57.19,57.19,0,0,1,.94-7.39c1.21,2.15,1,4.52,1,6.84q0,144.21,0,288.42C319.91,471.5,320.84,474.28,318,475.92Z" transform="translate(-151.93 -150.9)"/><path class="cls-10" d="M163,169a49.81,49.81,0,0,0-2,15.25Q161,325,161,465.83c0,1.83-.05,3.66,0,5.49,0.59,12,6.92,18.93,18.88,20.77,0.23,0.91,0,1.4-1,1C167.59,492,160,483.87,160,472.49Q160,325.11,160,177.74a19.42,19.42,0,0,1,2.18-9.62C163,167.9,163.51,168,163,169Z" transform="translate(-151.93 -150.9)"/><path class="cls-11" d="M309.07,496c-4.17,2.43-8.81,2.95-13.47,3-37.41.06-74.81,0.14-112.22-.06-7.12,0-14.37-.86-19.54-6.93,8,5.24,16.86,5.18,25.93,5.13,30.15-.18,60.31,0,90.46-0.08C289.86,497,299.5,497.52,309.07,496Z" transform="translate(-151.93 -150.9)"/><path class="cls-7" d="M178.92,493.09l1-1L295.4,492a8.15,8.15,0,0,1,4.82,1c-2,1-4.19.91-6.34,0.91H185.28C183.13,493.9,180.95,494.06,178.92,493.09Z" transform="translate(-151.93 -150.9)"/><path class="cls-12" d="M163,169l-0.84-.88c4-7.69,10.31-11.27,19-11.26q58.8,0.09,117.6,0c2.15,0,4.34-.21,6.32.94q0.84,0.62-.06,1.15a36.09,36.09,0,0,0-9.39-1c-37.09,0-74.18.11-111.28-.06C175.07,157.89,167.76,160.78,163,169Z" transform="translate(-151.93 -150.9)"/><path class="cls-13" d="M302,492c8.05-2.17,13.22-7.4,16-15.12C318.65,484.74,309.8,493.09,302,492Z" transform="translate(-151.93 -150.9)"/><path class="cls-14" d="M305,159l0.06-1.15c7.58,2.35,12.18,7.45,13.94,15.16a4.52,4.52,0,0,1-2.48-2.93C314.31,164.67,310.24,161.21,305,159Z" transform="translate(-151.93 -150.9)"/><path class="cls-15" d="M320,484.72c-1.32,5.45-5,8.62-10.08,10.43C313.43,491.81,317.16,488.69,320,484.72Z" transform="translate(-151.93 -150.9)"/><path class="cls-8" d="M243.86,487c-3.44,1.08-6.87,2.07-9.87-1-3.08-1.38-5.46-3.36-6-6.94-2.5-10.18,2.4-15.22,14.56-15,5.12,0.65,7.19,4.59,8.58,8.69,1.57,4.62-.81,8.52-3.71,11.92A10.88,10.88,0,0,1,243.86,487Z" transform="translate(-151.93 -150.9)"/><path class="cls-16" d="M167,193.91c1.82-1.12,3.85-.9,5.83-0.9q66.62,0,133.24,0c2.42,0,5.11-.58,6.79,2a6.87,6.87,0,0,1-1.54,1.23c-2.47,1.29-5.16,1.17-7.81,1.17q-63.82.08-127.64,0c-2.94,0-6,.43-8.58-1.74A1.42,1.42,0,0,1,167,193.91Z" transform="translate(-151.93 -150.9)"/><path class="cls-17" d="M312.82,454c-1.38,2.25-3.65,2-5.79,2H171.8c-1.66,0-3.35.08-4.82-.93a1.44,1.44,0,0,1,.31-1.78c1.74-1.62,4-1.66,6.1-1.66q66-.22,132.08,0a11.71,11.71,0,0,1,5.81,1.14A6.54,6.54,0,0,1,312.82,454Z" transform="translate(-151.93 -150.9)"/><path class="cls-13" d="M167,454l0,1.07c-1.41-1.91-1.07-4.13-1.07-6.27q0-124.3,0-248.61c0-2.14-.33-4.36,1.06-6.27l0.08,1.19a6.13,6.13,0,0,1,2.25,4.8c0.13,2.16.16,4.33,0.16,6.49q0,118.16-.05,236.31C169.41,446.55,170.57,450.83,167,454Z" transform="translate(-151.93 -150.9)"/><path class="cls-18" d="M312.82,454h-0.88a6.38,6.38,0,0,1-2.25-4.82q-0.16-3-.16-6,0-118.65,0-237.31c0-3.71-1-7.77,2.31-10.84l0.95,0c0.05,1.83.15,3.66,0.15,5.49q0,124,0,247.94C313,450.31,312.88,452.14,312.82,454Z" transform="translate(-151.93 -150.9)"/><path class="cls-19" d="M243.86,487c0.58-1,1.1-2,1.76-3,6.16-8.59,5.63-12.35-2.71-19A2.52,2.52,0,0,1,244,463c6.28,1.77,9.59,7,9,14.11C252.44,483,249.29,486.4,243.86,487Z" transform="translate(-151.93 -150.9)"/><path class="cls-20" d="M244,463L242.92,465c-11.29-.11-14.2,3-13.81,14.88A1.47,1.47,0,0,1,227,480c-4.06-8.6,1.61-17.32,11.08-17.05C240,463,242,463,244,463Z" transform="translate(-151.93 -150.9)"/><path class="cls-21" d="M252,176.15c-7.95,1.74-16,.7-24,0.61-2,0-3.51-1.24-2-3.66a4.45,4.45,0,0,0,1.55.77c8.1,0.65,16.26-.7,24.34.74A1.07,1.07,0,0,1,252,176.15Z" transform="translate(-151.93 -150.9)"/><path class="cls-22" d="M226.12,174.17L226,173.1c7.73-.06,15.46-0.2,23.19-0.13,1.7,0,5.13-.73,2.81,3.17l-0.12-1.24c-6.77-.9-13.58-0.16-20.36-0.42C229.74,174.42,227.9,174.8,226.12,174.17Z" transform="translate(-151.93 -150.9)"/><path class="cls-19" d="M227,480l2.14-.06c2.21,1.55,3.35,4,4.88,6.06C229.4,486.62,227.45,484.16,227,480Z" transform="translate(-151.93 -150.9)"/><path class="cls-23" d="M211.72,175.48c-1.55.07-2.22-.54-1.87-1.76a3.08,3.08,0,0,1,3.27-2.42c1,0,2.12.47,2,1.66C214.94,175.13,212.85,174.88,211.72,175.48Z" transform="translate(-151.93 -150.9)"/><path class="cls-13" d="M241.32,163.15a2.09,2.09,0,0,1-2.17,2.16,1.67,1.67,0,0,1-1.81-1.83,2,2,0,0,1,2.12-2.12A1.76,1.76,0,0,1,241.32,163.15Z" transform="translate(-151.93 -150.9)"/><path class="cls-8" d="M311.89,195q0,129.48,0,259H167q0-129.44.05-258.88Z" transform="translate(-151.93 -150.9)"/><path class="cls-8" d="M226.12,174.17c8.6,0.14,17.25-1.15,25.8.74C243.32,174.63,234.68,176,226.12,174.17Z" transform="translate(-151.93 -150.9)"/></svg>