<?xml version="1.0" encoding="utf-8"?>
<!-- Generator: Adobe Illustrator 19.1.1, SVG Export Plug-In . SVG Version: 6.00 Build 0)  -->
<svg version="1.1" xmlns="http://www.w3.org/2000/svg" xmlns:xlink="http://www.w3.org/1999/xlink" x="0px" y="0px"
	 viewBox="0 0 453.9 95.5" style="enable-background:new 0 0 453.9 95.5;" xml:space="preserve">
<style type="text/css">
	.st0{display:none;}
	.st1{display:inline;fill:#CCE9E8;}
	.st2{display:inline;}
	.st3{fill:none;stroke:#17DCFB;}
	.st4{fill:#231F20;}
	.st5{display:inline;opacity:0.75;}
	.st6{fill:#65E2EF;}
	.st7{display:inline;fill:#231F20;stroke:#65E2EF;}
	.st8{fill:#231F20;stroke:#65E2EF;}
	.st9{fill:url(#SVGID_1_);}
	.st10{opacity:0.75;}
	.st11{fill:url(#SVGID_2_);}
	.st12{fill:url(#SVGID_3_);}
	.st13{fill:#231F20;stroke:#54E3EA;}
	.st14{fill:#54E3EA;}
</style>
<g id="Layer_2" class="st0">
	<rect x="87.1" y="-274.7" class="st1" width="298.5" height="335"/>
</g>
<g id="Layer_1" class="st0">
	<g class="st2">
		<text transform="matrix(1 0 0 1 111.6856 -122.2533)"><tspan x="0" y="0" style="fill:none;stroke:#17DCFB;stroke-width:2;stroke-linecap:round; font-family:'FeenaCasual'; font-size:130px;">s</tspan><tspan x="31.5" y="0" style="fill:none;stroke:#17DCFB;stroke-width:2;stroke-linecap:round; font-family:'FeenaCasual'; font-size:72px;">eedo</tspan></text>
		<text transform="matrix(1 0 0 1 111.6856 -122.2533)"><tspan x="0" y="0" class="st4" style="font-family:'FeenaCasual'; font-size:130px;">s</tspan><tspan x="31.5" y="0" class="st4" style="font-family:'FeenaCasual'; font-size:72px;">eedo</tspan></text>
	</g>
	<text transform="matrix(1 0 0 1 465.146 -237.8867)" class="st2" style="font-family:'FeenaCasual'; font-size:120px;">Seedo</text>
	<g id="Layer_3" class="st2">
		<g>
			<g>
				<g>
					<path class="st3" d="M308.4-118.3h-12c0,0-2.1,0-2.1-1.1c0-0.7,2.1-0.9,2.1-0.9h10V-132c0,0,0.2-1.8,1-1.7c0.7,0,1,1.7,1,1.7
						V-118.3z"/>
					<path class="st4" d="M308.4-118.3h-12c0,0-2.1,0-2.1-1.1c0-0.7,2.1-0.9,2.1-0.9h10V-132c0,0,0.2-1.8,1-1.7c0.7,0,1,1.7,1,1.7
						V-118.3z"/>
				</g>
			</g>
		</g>
	</g>
	<g id="v4" class="st2">
	</g>
</g>
<g id="new" class="st0">
	<g class="st5">
		<rect y="47.8" class="st6" width="453.9" height="6.4"/>
	</g>
	<path class="st7" d="M72.1,18.8c-0.1-3.9,1.3-7.4,4.1-10.4c2.8-3,6.2-4.6,10.1-4.6c3.1,0,4.3,0,3.6,0v5.6c-1.7-0.4-3.8-0.3-6.2,0.2
		c-4,2.2-6,5.3-5.9,9.5c0.1,2.8,2.2,6.9,6.4,12.4c6.4,8.3,10.2,13.5,11.5,15.6c4.1,6.7,6.1,13.1,6.1,19.2c0,7.8-2.4,14.3-7.3,19.3
		c-4.6,4.7-10.7,7.6-18.5,8.8c-1.4,0.3-3.4,0.5-6.1,0.5v-6.1c7.3,0,13.1-1.7,17.5-5c5.8-4.3,8.6-10.1,8.6-17.4c0-5.4-2-11-6.1-17
		c-3.8-5-7.7-9.9-11.5-14.9C74.3,28.7,72.2,23.5,72.1,18.8z"/>
	<path class="st7" d="M165.3,80.1c-3,4.6-7,8.2-11.8,10.9c-4.8,2.7-10.1,4-15.8,4c-9.2,0-17-3.2-23.5-9.7
		c-6.4-6.4-9.7-14.2-9.7-23.3c0-9,3.2-16.8,9.7-23.2c6.4-6.4,14.3-9.7,23.5-9.7c7.8,0,14.6,2.2,20.4,6.6c5.8,4.4,9.7,10.4,11.8,17.9
		c0.5,0.1-19,0.1-58.3,0c-0.9,2.7-1.3,5.5-1.3,8.4c0,7.8,2.6,14.3,7.8,19.7c5.2,5.4,11.6,8,19.3,8c5,0,9.6-1.1,13.9-3.4
		c4.3-2.3,7.7-5.3,10.1-9.2C161.8,77.5,163.2,78.5,165.3,80.1z M114,48.3h47.8c-2.5-4.2-5.9-7.6-10.2-10.1c-4.3-2.5-9-3.8-14.2-3.8
		C127.1,34.4,119.3,39.1,114,48.3z"/>
	<path class="st7" d="M233.5,80.1c-3,4.6-7,8.2-11.8,10.9c-4.8,2.7-10.1,4-15.8,4c-9.2,0-17-3.2-23.5-9.7
		c-6.4-6.4-9.7-14.2-9.7-23.3c0-9,3.2-16.8,9.7-23.2c6.4-6.4,14.3-9.7,23.5-9.7c7.8,0,14.6,2.2,20.4,6.6c5.8,4.4,9.7,10.4,11.8,17.9
		c0.5,0.1-19,0.1-58.3,0c-0.9,2.7-1.3,5.5-1.3,8.4c0,7.8,2.6,14.3,7.8,19.7c5.2,5.4,11.6,8,19.3,8c5,0,9.6-1.1,13.9-3.4
		c4.3-2.3,7.7-5.3,10.1-9.2C230,77.5,231.3,78.5,233.5,80.1z M182.1,48.3h47.8c-2.5-4.2-5.9-7.6-10.2-10.1c-4.3-2.5-9-3.8-14.2-3.8
		C195.2,34.4,187.4,39.1,182.1,48.3z"/>
	<path class="st7" d="M307,0.5v46.1V51c0,9.1-3.2,16.9-9.7,23.3c-6.4,6.4-14.2,9.7-23.3,9.7s-16.9-3.2-23.4-9.7
		c-6.5-6.4-9.7-14.2-9.7-23.3c0-9,3.2-16.8,9.7-23.2c6.5-6.4,14.3-9.7,23.4-9.7c5.6,0,10.8,1.3,15.6,3.9c4.8,2.6,8.7,6.1,11.8,10.5
		v-32H307z M301.3,47.8c-0.7-8.6-5-14.9-10-18.7c-5-3.8-10.7-5.7-17.1-5.7c-7.7,0-14.2,2.7-19.8,8.1c-5.5,5.4-8.3,11.9-8.3,19.5
		c0,7.7,2.8,14.2,8.3,19.6c5.5,5.4,12.1,8.1,19.8,8.1c7.3,0,13.6-2.6,18.7-7.7C293,71.1,302.6,61.9,301.3,47.8z"/>
	<g class="st2">
		<path class="st8" d="M375.9,51c0,9.1-3.2,16.9-9.7,23.3c-6.4,6.4-14.2,9.7-23.3,9.7s-16.9-3.2-23.4-9.7
			c-6.5-6.4-9.7-14.2-9.7-23.3c0-9,3.2-16.8,9.7-23.2c6.5-6.4,14.3-9.7,23.4-9.7s16.9,3.2,23.3,9.7C372.7,34.2,375.9,42,375.9,51z
			 M370.6,51c0-7.6-2.7-14.1-8.2-19.5c-5.5-5.4-12.1-8.1-19.9-8.1c-7.8,0-14.4,2.7-19.9,8.1c-5.5,5.4-8.2,11.9-8.2,19.5
			c0,7.7,2.7,14.2,8.2,19.6c5.5,5.4,12.1,8.1,19.9,8.1c7.8,0,14.4-2.7,19.9-8.1C367.9,65.2,370.6,58.7,370.6,51z"/>
		<g>
			<path class="st4" d="M325.5,53.7c-1.5,0-2.7-1.2-2.7-2.7s1.2-2.7,2.7-2.7h14.7V30.3c0-1.5,1.2-2.7,2.7-2.7s2.7,1.2,2.7,2.7V51
				c0,0.7-0.3,1.4-0.8,1.9c-0.5,0.5-1.2,0.8-1.9,0.8H325.5z"/>
			<path class="st6" d="M342.9,28.2c1.2,0,2.2,1,2.2,2.2V51c0,0.6-0.2,1.1-0.7,1.6c-0.4,0.4-1,0.7-1.6,0.7h-17.3
				c-1.2,0-2.2-1-2.2-2.2c0-1.2,1-2.2,2.2-2.2h14.2h1v-1V30.3C340.7,29.1,341.7,28.2,342.9,28.2 M342.9,27.2c-1.7,0-3.2,1.4-3.2,3.2
				v17.6h-14.2c-1.7,0-3.2,1.4-3.2,3.2s1.4,3.2,3.2,3.2h17.3c0.9,0,1.7-0.4,2.3-1c0.6-0.6,0.9-1.4,0.9-2.2V30.3
				C346,28.6,344.6,27.2,342.9,27.2L342.9,27.2z"/>
		</g>
	</g>
</g>
<g id="new_2" class="st0">
	<g class="st5">
		<linearGradient id="SVGID_1_" gradientUnits="userSpaceOnUse" x1="-1.125" y1="51.0048" x2="455.6662" y2="51.0048">
			<stop  offset="0" style="stop-color:#FFFFFF;stop-opacity:0"/>
			<stop  offset="0.181" style="stop-color:#65E2EF"/>
			<stop  offset="0.819" style="stop-color:#60D2DE"/>
			<stop  offset="1" style="stop-color:#FFFFFF;stop-opacity:0"/>
		</linearGradient>
		<rect y="47.8" class="st9" width="453.9" height="6.4"/>
	</g>
	<path class="st7" d="M72.1,18.8c-0.1-3.9,1.3-7.4,4.1-10.4c2.8-3,6.2-4.6,10.1-4.6c3.1,0,4.3,0,3.6,0v5.6c-1.7-0.4-3.8-0.3-6.2,0.2
		c-4,2.2-6,5.3-5.9,9.5c0.1,2.8,2.2,6.9,6.4,12.4c6.4,8.3,10.2,13.5,11.5,15.6c4.1,6.7,6.1,13.1,6.1,19.2c0,7.8-2.4,14.3-7.3,19.3
		c-4.6,4.7-10.7,7.6-18.5,8.8c-1.4,0.3-3.4,0.5-6.1,0.5v-6.1c7.3,0,13.1-1.7,17.5-5c5.8-4.3,8.6-10.1,8.6-17.4c0-5.4-2-11-6.1-17
		c-3.8-5-7.7-9.9-11.5-14.9C74.3,28.7,72.2,23.5,72.1,18.8z"/>
	<path class="st7" d="M165.3,80.1c-3,4.6-7,8.2-11.8,10.9c-4.8,2.7-10.1,4-15.8,4c-9.2,0-17-3.2-23.5-9.7
		c-6.4-6.4-9.7-14.2-9.7-23.3c0-9,3.2-16.8,9.7-23.2c6.4-6.4,14.3-9.7,23.5-9.7c7.8,0,14.6,2.2,20.4,6.6c5.8,4.4,9.7,10.4,11.8,17.9
		c0.5,0.1-19,0.1-58.3,0c-0.9,2.7-1.3,5.5-1.3,8.4c0,7.8,2.6,14.3,7.8,19.7c5.2,5.4,11.6,8,19.3,8c5,0,9.6-1.1,13.9-3.4
		c4.3-2.3,7.7-5.3,10.1-9.2C161.8,77.5,163.2,78.5,165.3,80.1z M114,48.3h47.8c-2.5-4.2-5.9-7.6-10.2-10.1c-4.3-2.5-9-3.8-14.2-3.8
		C127.1,34.4,119.3,39.1,114,48.3z"/>
	<path class="st7" d="M233.5,80.1c-3,4.6-7,8.2-11.8,10.9c-4.8,2.7-10.1,4-15.8,4c-9.2,0-17-3.2-23.5-9.7
		c-6.4-6.4-9.7-14.2-9.7-23.3c0-9,3.2-16.8,9.7-23.2c6.4-6.4,14.3-9.7,23.5-9.7c7.8,0,14.6,2.2,20.4,6.6c5.8,4.4,9.7,10.4,11.8,17.9
		c0.5,0.1-19,0.1-58.3,0c-0.9,2.7-1.3,5.5-1.3,8.4c0,7.8,2.6,14.3,7.8,19.7c5.2,5.4,11.6,8,19.3,8c5,0,9.6-1.1,13.9-3.4
		c4.3-2.3,7.7-5.3,10.1-9.2C230,77.5,231.3,78.5,233.5,80.1z M182.1,48.3h47.8c-2.5-4.2-5.9-7.6-10.2-10.1c-4.3-2.5-9-3.8-14.2-3.8
		C195.2,34.4,187.4,39.1,182.1,48.3z"/>
	<path class="st7" d="M307,0.5v46.1V51c0,9.1-3.2,16.9-9.7,23.3c-6.4,6.4-14.2,9.7-23.3,9.7s-16.9-3.2-23.4-9.7
		c-6.5-6.4-9.7-14.2-9.7-23.3c0-9,3.2-16.8,9.7-23.2c6.5-6.4,14.3-9.7,23.4-9.7c5.6,0,10.8,1.3,15.6,3.9c4.8,2.6,8.7,6.1,11.8,10.5
		v-32H307z M301.3,47.8c-0.7-8.6-5-14.9-10-18.7c-5-3.8-10.7-5.7-17.1-5.7c-7.7,0-14.2,2.7-19.8,8.1c-5.5,5.4-8.3,11.9-8.3,19.5
		c0,7.7,2.8,14.2,8.3,19.6c5.5,5.4,12.1,8.1,19.8,8.1c7.3,0,13.6-2.6,18.7-7.7C293,71.1,302.6,61.9,301.3,47.8z"/>
	<g class="st2">
		<path class="st8" d="M375.9,51c0,9.1-3.2,16.9-9.7,23.3c-6.4,6.4-14.2,9.7-23.3,9.7s-16.9-3.2-23.4-9.7
			c-6.5-6.4-9.7-14.2-9.7-23.3c0-9,3.2-16.8,9.7-23.2c6.5-6.4,14.3-9.7,23.4-9.7s16.9,3.2,23.3,9.7C372.7,34.2,375.9,42,375.9,51z
			 M370.6,51c0-7.6-2.7-14.1-8.2-19.5c-5.5-5.4-12.1-8.1-19.9-8.1c-7.8,0-14.4,2.7-19.9,8.1c-5.5,5.4-8.2,11.9-8.2,19.5
			c0,7.7,2.7,14.2,8.2,19.6c5.5,5.4,12.1,8.1,19.9,8.1c7.8,0,14.4-2.7,19.9-8.1C367.9,65.2,370.6,58.7,370.6,51z"/>
		<g>
			<path class="st4" d="M325.5,53.7c-1.5,0-2.7-1.2-2.7-2.7s1.2-2.7,2.7-2.7h14.7V30.3c0-1.5,1.2-2.7,2.7-2.7s2.7,1.2,2.7,2.7V51
				c0,0.7-0.3,1.4-0.8,1.9c-0.5,0.5-1.2,0.8-1.9,0.8H325.5z"/>
			<path class="st6" d="M342.9,28.2c1.2,0,2.2,1,2.2,2.2V51c0,0.6-0.2,1.1-0.7,1.6c-0.4,0.4-1,0.7-1.6,0.7h-17.3
				c-1.2,0-2.2-1-2.2-2.2c0-1.2,1-2.2,2.2-2.2h14.2h1v-1V30.3C340.7,29.1,341.7,28.2,342.9,28.2 M342.9,27.2c-1.7,0-3.2,1.4-3.2,3.2
				v17.6h-14.2c-1.7,0-3.2,1.4-3.2,3.2s1.4,3.2,3.2,3.2h17.3c0.9,0,1.7-0.4,2.3-1c0.6-0.6,0.9-1.4,0.9-2.2V30.3
				C346,28.6,344.6,27.2,342.9,27.2L342.9,27.2z"/>
		</g>
	</g>
</g>
<g id="new_2_copy">
	<g class="st10">
		<linearGradient id="SVGID_2_" gradientUnits="userSpaceOnUse" x1="-5.004883e-003" y1="51.0063" x2="246.435" y2="51.0063">
			<stop  offset="0" style="stop-color:#FFFFFF;stop-opacity:0"/>
			<stop  offset="0.181" style="stop-color:#54E3EA"/>
			<stop  offset="0.819" style="stop-color:#54E3EA"/>
			<stop  offset="1" style="stop-color:#FFFFFF;stop-opacity:0"/>
		</linearGradient>
		<path class="st11" d="M246.3,51c0,1.1,0,2.1,0.2,3.2H0v-6.4h246.4C246.3,48.9,246.3,49.9,246.3,51z"/>
	</g>
	<g class="st10">
		<linearGradient id="SVGID_3_" gradientUnits="userSpaceOnUse" x1="301.165" y1="51.0063" x2="453.875" y2="51.0063">
			<stop  offset="0" style="stop-color:#FFFFFF;stop-opacity:0"/>
			<stop  offset="0.181" style="stop-color:#54E3EA"/>
			<stop  offset="0.819" style="stop-color:#54E3EA"/>
			<stop  offset="1" style="stop-color:#FFFFFF;stop-opacity:0"/>
		</linearGradient>
		<path class="st12" d="M453.9,47.8v6.4H301.2c0.3-2,0.4-4.1,0.2-6.4v0H453.9z"/>
	</g>
	<g>
		<path class="st13" d="M99.2,54.2c-0.8-2.1-1.9-4.2-3.2-6.4c-0.1-0.2-0.3-0.5-0.4-0.7c-1.3-2.1-5.1-7.3-11.5-15.6
			c-4.2-5.4-6.3-9.6-6.4-12.4c-0.1-4.2,1.9-7.3,5.9-9.5c2.5-0.6,4.6-0.6,6.2-0.2V3.8h-3.6c-3.9,0-7.3,1.5-10.1,4.6
			c-2.8,3-4.2,6.5-4.1,10.4c0.1,4.6,2.2,9.8,6.2,15.6c3.5,4.5,6.9,8.9,10.4,13.4c0.4,0.5,0.8,1,1.2,1.5c1.1,1.7,2.1,3.3,2.9,4.9
			c2.1,4.2,3.2,8.3,3.2,12.1c0,7.3-2.9,13.1-8.6,17.4c-4.4,3.4-10.2,5-17.5,5v6.1c2.7,0,4.8-0.2,6.1-0.5c7.8-1.1,13.9-4,18.5-8.8
			c4.9-5,7.3-11.5,7.3-19.3C101.8,62.4,100.9,58.4,99.2,54.2z"/>
		<path class="st13" d="M151.2,86.4c-4.3,2.3-8.9,3.4-13.9,3.4c-7.7,0-14.1-2.7-19.3-8c-5.2-5.4-7.8-11.9-7.8-19.7
			c0-2.7,0.4-5.3,1.1-7.8c0.1-0.2,0.1-0.4,0.2-0.6c38.3,0.1,57.8,0.1,58.3,0c-0.6-2-1.3-4-2.1-5.8c-2.2-4.9-5.5-8.9-9.7-12.1
			c-5.8-4.4-12.6-6.6-20.4-6.6c-9.2,0-17,3.2-23.5,9.7c-2.8,2.8-4.9,5.8-6.5,9c-1,2-1.8,4.2-2.3,6.4c-0.6,2.5-0.9,5.1-0.9,7.8
			c0,9.1,3.2,16.9,9.7,23.3s14.3,9.7,23.5,9.7c5.7,0,10.9-1.3,15.8-4c4.8-2.7,8.8-6.3,11.8-10.9c-2.2-1.6-3.5-2.6-4-3
			C158.9,81,155.5,84.1,151.2,86.4z M137.4,34.4c5.1,0,9.8,1.3,14.2,3.8c4.1,2.4,7.4,5.6,9.9,9.6c0.1,0.2,0.2,0.3,0.3,0.5H114
			c0.1-0.2,0.2-0.4,0.3-0.5C119.6,38.9,127.3,34.4,137.4,34.4z"/>
		<path class="st13" d="M219.4,86.4c-4.3,2.3-8.9,3.4-13.9,3.4c-7.7,0-14.1-2.7-19.3-8c-5.2-5.4-7.8-11.9-7.8-19.7
			c0-2.7,0.4-5.3,1.2-7.8c0.1-0.2,0.1-0.4,0.2-0.6c38.3,0.1,57.8,0.1,58.3,0c-0.6-2-1.3-4-2.1-5.8c-2.2-4.9-5.5-8.9-9.7-12.1
			c-5.8-4.4-12.6-6.6-20.4-6.6c-9.2,0-17,3.2-23.5,9.7c-2.8,2.8-4.9,5.8-6.5,9c-1,2-1.8,4.2-2.3,6.4c-0.6,2.5-0.9,5.1-0.9,7.8
			c0,9.1,3.2,16.9,9.7,23.3c6.4,6.4,14.3,9.7,23.5,9.7c5.7,0,10.9-1.3,15.8-4c4.8-2.7,8.8-6.3,11.8-10.9c-2.2-1.6-3.5-2.6-4-3
			C227,81,223.6,84.1,219.4,86.4z M205.5,34.4c5.1,0,9.8,1.3,14.2,3.8c4.1,2.4,7.4,5.6,9.9,9.6c0.1,0.2,0.2,0.3,0.3,0.5h-47.8
			c0.1-0.2,0.2-0.4,0.3-0.5C187.7,38.9,195.4,34.4,205.5,34.4z"/>
		<path class="st13" d="M301.3,0.5v32c-3-4.4-7-7.9-11.8-10.5c-4.8-2.6-10-3.9-15.6-3.9c-9.1,0-16.9,3.2-23.4,9.7
			c-5.7,5.7-8.9,12.3-9.6,20c-0.1,1-0.1,2.1-0.1,3.2c0,1.1,0.1,2.1,0.1,3.2c0.7,7.8,3.9,14.5,9.6,20.2c6.5,6.4,14.3,9.7,23.4,9.7
			s16.9-3.2,23.3-9.7c5.7-5.7,8.8-12.4,9.5-20.2c0.1-1,0.1-2.1,0.1-3.2V0.5H301.3z M301.2,54.2c-1.4,10.4-8.2,16.9-8.2,16.9
			c-5.1,5.1-11.3,7.7-18.7,7.7c-7.7,0-14.3-2.7-19.8-8.1c-4.7-4.6-7.4-10.1-8.1-16.4c-0.1-1-0.2-2.1-0.2-3.2c0-1.1,0.1-2.2,0.2-3.2
			c0.7-6.2,3.4-11.7,8.1-16.3c5.5-5.4,12.1-8.1,19.8-8.1c6.4,0,12.1,1.9,17.1,5.7c5,3.8,9.3,10.1,10,18.7v0
			C301.5,50.1,301.4,52.2,301.2,54.2z"/>
		<g>
			<path class="st13" d="M375.8,47.8c-0.7-7.7-3.9-14.3-9.5-20c-6.4-6.4-14.2-9.7-23.3-9.7s-16.9,3.2-23.4,9.7
				c-5.7,5.7-8.9,12.3-9.6,20c-0.1,1-0.1,2.1-0.1,3.2c0,1.1,0,2.1,0.1,3.2c0.7,7.8,3.9,14.5,9.6,20.2c6.5,6.4,14.3,9.7,23.4,9.7
				s16.9-3.2,23.3-9.7c5.7-5.7,8.8-12.4,9.5-20.2c0.1-1,0.1-2.1,0.1-3.2C375.9,49.9,375.9,48.9,375.8,47.8z M362.4,70.6
				c-5.5,5.4-12.1,8.1-19.9,8.1s-14.4-2.7-19.9-8.1c-4.7-4.6-7.4-10.1-8-16.4c-0.1-1-0.2-2.1-0.2-3.2c0-1.1,0.1-2.2,0.2-3.2
				c0.7-6.2,3.4-11.7,8-16.3c5.5-5.4,12.1-8.1,19.9-8.1s14.4,2.7,19.9,8.1c4.7,4.6,7.4,10,8,16.3c0.1,1,0.2,2.1,0.2,3.2
				c0,1.1-0.1,2.1-0.2,3.2C369.8,60.5,367.1,66,362.4,70.6z"/>
			<g>
				<path class="st4" d="M325.5,53.7c-1.5,0-2.7-1.2-2.7-2.7s1.2-2.7,2.7-2.7h14.7V30.3c0-1.5,1.2-2.7,2.7-2.7s2.7,1.2,2.7,2.7V51
					c0,0.7-0.3,1.4-0.8,1.9c-0.5,0.5-1.2,0.8-1.9,0.8H325.5z"/>
				<path class="st14" d="M342.9,28.2c1.2,0,2.2,1,2.2,2.2V51c0,0.6-0.2,1.1-0.7,1.6c-0.4,0.4-1,0.7-1.6,0.7h-17.3
					c-1.2,0-2.2-1-2.2-2.2c0-1.2,1-2.2,2.2-2.2h14.2h1v-1V30.3C340.7,29.1,341.7,28.2,342.9,28.2 M342.9,27.2
					c-1.7,0-3.2,1.4-3.2,3.2v17.6h-14.2c-1.7,0-3.2,1.4-3.2,3.2s1.4,3.2,3.2,3.2h17.3c0.9,0,1.7-0.4,2.3-1c0.6-0.6,0.9-1.4,0.9-2.2
					V30.3C346,28.6,344.6,27.2,342.9,27.2L342.9,27.2z"/>
			</g>
		</g>
	</g>
</g>
<g id="Layer_6">
</g>
</svg>
